# xmcd
#
# Track frame offsets:
#	150
#	11700
#	29801
#	49743
#	60028
#	76056
#	91604
#	110241
#	125304
#	139565
#	159925
#	180726
#	206361
#
# Disc length: 3264 seconds
# Revision: 1
# Processed by: cddbd v1.5.2PL0 Copyright (c) Steve Scherf et al.
# Submitted via: dBpowerAMP V12.0
#
DISCID=9b0cbe0d
DTITLE=Bulldog Gravy - Big Bad Blues
DYEAR=2003
DGENRE=Blues
TTITLE0=Big Bad Blues
TTITLE1=Down the Road
TTITLE2=Love Sick Blues
TTITLE3=Tight Like That
TTITLE4=Going to Brownsville
TTITLE5=Fishing Blues
TTITLE6=I Wish I Was in Heaven Sitting Down
TTITLE7=Rolling and Tumbling
TTITLE8=Same Old Blues
TTITLE9=Skeletons in My Closet
TTITLE10=Maggie's Farm
TTITLE11=On the Road Again
TTITLE12=Back Door Man
EXTD=
EXTT0=
EXTT1=
EXTT2=
EXTT3=
EXTT4=
EXTT5=
EXTT6=
EXTT7=
EXTT8=
EXTT9=
EXTT10=
EXTT11=
EXTT12=
PLAYORDER=
